<svg width="44" height="44" viewBox="0 0 44 44" fill="none" xmlns="http://www.w3.org/2000/svg">
<circle cx="22" cy="22" r="22" fill="#FE805C"/>
<path fill-rule="evenodd" clip-rule="evenodd" d="M21.8212 25.5059C21.9902 25.5059 22.1602 25.5489 22.3132 25.6349L27.0002 28.2859V15.3339C27.0002 15.1329 26.8792 14.9999 26.8002 14.9999H17.2002C17.1202 14.9999 17.0002 15.1329 17.0002 15.3339V28.2339L21.3062 25.6489C21.4652 25.5539 21.6432 25.5059 21.8212 25.5059ZM16.0002 30.9999C15.8302 30.9999 15.6602 30.9569 15.5072 30.8699C15.1942 30.6929 15.0002 30.3599 15.0002 29.9999V15.3339C15.0002 14.0469 15.9872 12.9999 17.2002 12.9999H26.8002C28.0132 12.9999 29.0002 14.0469 29.0002 15.3339V29.9999C29.0002 30.3559 28.8112 30.6849 28.5042 30.8639C28.1962 31.0439 27.8182 31.0469 27.5082 30.8709L21.8362 27.6629L16.5142 30.8579C16.3562 30.9519 16.1782 30.9999 16.0002 30.9999Z" fill="white"/>
</svg>
