<svg width="100" height="100" viewBox="0 0 100 100" fill="none" xmlns="http://www.w3.org/2000/svg">
<path d="M18.2139 54.1563C18.2139 49.2075 18.2139 44.294 18.2139 39.3452C18.2139 39.027 18.1017 38.7089 18.5131 38.4968C18.6627 38.4261 18.5879 38.1787 18.5879 38.0373C18.5879 37.8252 18.5505 37.5777 18.8497 37.4717C18.9619 37.4363 18.9619 37.2949 18.9619 37.1889C18.9619 37.0121 18.9619 36.8354 19.2236 36.7647C19.261 36.7647 19.3358 36.6587 19.3358 36.6233C19.3358 36.0224 19.9342 35.7749 20.2708 35.3861C20.5325 35.068 20.9065 34.8205 21.2057 34.5377C21.5422 34.2196 21.8788 33.9014 22.2154 33.5833C22.5146 33.2652 22.8511 33.0177 23.1129 32.6996C23.3747 32.3814 23.7113 32.134 24.0478 31.8512C24.347 31.5684 24.6836 31.2503 24.9828 30.9675C25.2819 30.6847 25.5811 30.4019 25.9177 30.1191C26.2169 29.8363 26.5534 29.5182 26.8526 29.2354C27.1518 28.9526 27.4509 28.6698 27.7501 28.3517C28.0493 28.0689 28.3859 27.7507 28.685 27.468C28.9842 27.1852 29.2834 26.867 29.5826 26.5842C29.9191 26.2661 30.2183 25.9833 30.5549 25.6652C30.8541 25.3824 31.1532 25.0996 31.4898 24.8168C31.789 24.534 32.1256 24.2512 32.4247 23.9684C32.7613 23.6503 33.0605 23.3675 33.397 23.0494C33.6962 22.7666 33.9954 22.4484 34.2946 22.1656C34.5937 21.8828 34.8929 21.5647 35.1921 21.2819C35.5287 20.9991 35.7905 20.7163 36.127 20.4336C36.4636 20.1154 36.8002 19.7973 37.1367 19.4791C37.4359 19.161 37.7725 18.9136 38.0343 18.5954C38.296 18.2773 38.6326 18.0298 38.9692 17.747C39.2684 17.4642 39.6049 17.1815 39.9041 16.8987C40.2033 16.6159 40.5025 16.2977 40.8016 16.015C41.1382 15.6968 41.4748 15.3787 41.8113 15.0605C42.1479 14.7777 42.4097 14.4596 42.7463 14.2122C43.0828 13.9647 43.3446 13.6819 43.6438 13.3638C43.943 13.0457 44.2795 12.7275 44.6161 12.4447C44.9153 12.1619 45.1771 11.8791 45.5136 11.5964C45.8128 11.3489 45.9998 10.9954 46.4485 11.0308C46.5607 11.0308 46.5981 10.9601 46.6355 10.854C46.6729 10.7833 46.7477 10.7126 46.8599 10.7126C47.1217 10.6773 47.3461 10.6773 47.4957 10.4298C47.5705 10.2884 47.7948 10.3591 47.9818 10.3591C48.2062 10.3591 48.468 10.3945 48.5802 10.1117C48.655 9.97031 48.8046 10.0057 48.9167 10.0057C49.9265 10.0057 50.8988 10.0057 51.9085 10.0057C52.0207 10.0057 52.1703 9.9703 52.2077 10.0763C52.3573 10.3945 52.6564 10.3238 52.9182 10.3591C53.1052 10.3591 53.3296 10.3591 53.4044 10.6066C53.4418 10.6773 53.4792 10.7126 53.554 10.7126C54.0401 10.6773 54.2645 11.0308 54.5263 11.3136C54.5637 11.3489 54.6011 11.4196 54.6759 11.4196C55.349 11.455 55.5734 12.0205 55.9847 12.3387C56.3213 12.5861 56.5831 12.9043 56.8823 13.1871C57.2188 13.4698 57.518 13.788 57.8546 14.1061C58.1538 14.3889 58.4529 14.6717 58.7521 14.9545C59.0887 15.2726 59.4253 15.5908 59.7618 15.9089C60.0236 16.1917 60.3228 16.4391 60.622 16.7219C60.9585 17.0401 61.2951 17.3935 61.6691 17.6763C61.9682 17.9591 62.2674 18.2773 62.604 18.5247C62.9032 18.7722 63.2023 19.0903 63.5015 19.3377C63.8381 19.6559 64.1747 19.974 64.5112 20.2922C64.8104 20.5749 65.1096 20.8577 65.4088 21.1759C65.7079 21.494 66.0445 21.7768 66.3437 22.0596C66.6429 22.3424 66.942 22.6252 67.2412 22.908C67.5778 23.2261 67.8769 23.5089 68.2135 23.827C68.5127 24.1098 68.8119 24.3926 69.0736 24.6754C69.4102 24.9936 69.7468 25.3117 70.0834 25.6298C70.3825 25.9126 70.6817 26.1954 70.9809 26.5135C71.2801 26.7963 71.6166 27.1145 71.9158 27.3973C72.215 27.68 72.5516 27.9982 72.8507 28.281C73.1499 28.5638 73.4491 28.8466 73.7482 29.1294C74.0848 29.4121 74.384 29.7303 74.7206 30.0484C75.0197 30.3312 75.3189 30.614 75.6181 30.8968C75.9173 31.1796 76.2538 31.4977 76.553 31.7805C76.8522 32.0633 77.1514 32.3814 77.4505 32.6642C77.7871 32.9824 78.1237 33.2652 78.4603 33.6187C78.722 33.9014 79.0212 34.1842 79.3204 34.4317C79.7692 34.7852 80.1057 35.28 80.5919 35.5982C80.6293 35.6335 80.6667 35.6689 80.6667 35.7042C80.6667 36.1638 81.0032 36.3759 81.3024 36.6233C81.4146 36.694 81.4146 36.8 81.4146 36.9061C81.452 37.0828 81.4146 37.2596 81.6764 37.3303C81.7886 37.3656 81.7886 37.4717 81.7886 37.5424C81.7886 37.7545 81.826 37.9666 82.0878 38.0726C82.1999 38.1079 82.1625 38.2493 82.1625 38.3554C82.1625 38.7089 82.1999 39.0624 82.1999 39.4158C82.1999 47.2633 82.1999 55.1461 82.1999 62.9935C82.1999 63.2409 82.1999 63.4884 82.1999 63.7358C82.1999 63.9126 82.1999 64.054 82.013 64.1247C81.8634 64.1954 81.8634 64.3368 81.8634 64.4782C81.8634 64.7256 81.8634 65.0084 81.8634 65.2558C81.8634 65.5033 81.9382 65.7861 81.6016 65.9275C81.4894 65.9628 81.5268 66.1042 81.5268 66.2103C81.5268 66.4577 81.5268 66.6698 81.4894 66.9172C81.4894 66.9879 81.4894 67.1293 81.452 67.1647C81.0032 67.3768 81.1902 67.7656 81.1528 68.1191C81.1154 68.3665 81.1902 68.614 80.891 68.7554C80.7415 68.8261 80.8163 69.0382 80.7789 69.2149C80.7415 69.427 80.8163 69.6744 80.5171 69.8158C80.3675 69.8865 80.4423 70.0986 80.4049 70.2754C80.3675 70.4875 80.4423 70.7702 80.1431 70.8763L80.1057 70.9116C80.1805 71.3358 79.657 71.5833 79.657 72.0075C79.657 72.1135 79.657 72.2195 79.5074 72.2549C79.283 72.3256 79.2456 72.5377 79.283 72.6791C79.3578 73.1386 78.9838 73.3507 78.7594 73.6688C78.722 73.7042 78.6098 73.7395 78.6098 73.7749C78.6472 74.1991 78.1611 74.4112 78.1611 74.8C78.1611 75.0828 77.8245 75.0828 77.7871 75.2949C77.7497 75.4716 77.7497 75.6484 77.5627 75.8251C77.3383 76.0019 77.0018 76.214 77.0018 76.6028C77.0018 76.8856 76.6278 76.9209 76.5156 77.1684C76.4782 77.2391 76.366 77.3451 76.2912 77.4158C76.0669 77.5926 75.9173 77.8047 75.8799 78.0874C75.8799 78.2995 75.6181 78.3349 75.5059 78.4763C75.2067 78.7591 74.9076 79.0772 74.6084 79.36C74.3466 79.5721 74.01 79.7488 74.0474 80.173C74.0474 80.2084 74.01 80.3144 73.9726 80.3144C73.4491 80.6326 73.1873 81.1628 72.6637 81.4809C72.6263 81.7637 72.2524 81.7637 72.1776 82.0112C72.1776 82.0819 72.1028 82.1172 72.028 82.1172C71.5418 82.1172 71.3549 82.506 71.0557 82.7888C70.6817 83.1423 70.2704 83.4605 69.9338 83.8493C69.8964 83.8847 69.859 83.92 69.8216 83.92C69.3354 83.92 69.111 84.2735 68.8119 84.5563C68.7745 84.5916 68.7371 84.627 68.6997 84.627C68.2135 84.627 67.9517 84.9451 67.69 85.2633C67.6526 85.2986 67.6152 85.334 67.5778 85.334C67.0916 85.334 66.7924 85.6521 66.5307 85.9702C66.4559 86.0409 66.3437 86.0409 66.2689 86.0409C66.0819 86.0763 65.8949 86.0409 65.8201 86.2884C65.7827 86.3944 65.6331 86.3944 65.5583 86.3944C65.3714 86.4298 65.147 86.3944 65.0722 86.6419L65.0348 86.6772C64.586 86.6419 64.3616 87.066 63.9503 87.1014C63.8381 87.1014 63.6885 87.1014 63.6511 87.2074C63.5389 87.4902 63.2771 87.4549 63.0528 87.4549C62.8284 87.4902 62.5292 87.4195 62.417 87.7377C62.417 87.773 62.3422 87.8084 62.3048 87.8084C62.043 87.8437 61.7813 87.8437 61.5943 88.1265C61.5195 88.2326 61.2577 88.1618 61.1081 88.1972C60.8837 88.1972 60.6968 88.1618 60.5472 88.4446C60.4724 88.6214 60.248 88.5507 60.061 88.5507C59.7992 88.586 59.5374 88.48 59.3879 88.7981C59.3505 88.9042 59.2009 88.8688 59.0887 88.8688C58.8643 88.8688 58.6399 88.8688 58.3782 88.9042C58.1912 88.9042 58.0042 88.9042 57.9294 89.1163C57.8546 89.2577 57.705 89.2223 57.5554 89.2223C57.1814 89.2223 56.8449 89.2223 56.4709 89.2577C56.3587 89.2577 56.1717 89.2223 56.1343 89.3637C56.0221 89.6465 55.7604 89.5758 55.536 89.6112C54.975 89.6112 54.4515 89.6112 53.8905 89.6465C53.7035 89.6465 53.5166 89.6465 53.4044 89.8586C53.367 89.9646 53.2174 89.9646 53.1052 89.9646C52.3199 89.9646 51.5345 89.9647 50.7866 90C50.5622 90 50.45 89.9293 50.45 89.6818C50.45 89.5758 50.45 89.4698 50.45 89.3637C50.45 85.0512 50.45 80.774 50.45 76.4614C50.45 75.8605 50.45 75.8605 51.0858 75.8605C51.3475 75.8605 51.6093 75.8605 51.8711 75.8605C52.0581 75.8605 52.2451 75.8605 52.3573 75.6484C52.432 75.507 52.5816 75.5423 52.6938 75.5423C52.993 75.5423 53.3296 75.5423 53.6287 75.507C53.8531 75.507 54.1523 75.5423 54.2645 75.2595C54.3019 75.1535 54.4515 75.1888 54.5637 75.1888C54.7881 75.1888 55.0124 75.1889 55.2742 75.1535C55.4612 75.1535 55.6482 75.1535 55.7604 74.9414C55.8726 74.7293 56.0969 74.8354 56.2839 74.8C56.5083 74.7647 56.8075 74.8354 56.9197 74.5526C56.9571 74.4465 57.0693 74.4819 57.1814 74.4465C57.3684 74.4112 57.5928 74.4465 57.6676 74.1991C57.705 74.093 57.8172 74.093 57.892 74.093C58.1164 74.093 58.3407 74.0577 58.4155 73.8103C58.4155 73.7749 58.4903 73.7395 58.5277 73.7395C59.0139 73.7395 59.2757 73.4214 59.5374 73.1033C59.5748 73.0679 59.6122 73.0326 59.6496 73.0326C60.1358 73.0326 60.3976 72.7144 60.6594 72.3963C60.6967 72.361 60.7342 72.3256 60.7715 72.3256C61.4447 72.2902 61.7065 71.7247 62.1178 71.3712C62.4544 71.0884 62.791 70.8056 63.0901 70.4875C63.3145 70.24 63.6511 70.0633 63.6885 69.6744C63.6885 69.4977 63.9877 69.3209 64.1747 69.1442C64.2495 69.0735 64.3242 69.0381 64.399 68.9321C64.586 68.72 64.773 68.5079 64.8104 68.1898C64.8478 68.013 65.1096 67.8363 65.2966 67.6596C65.334 67.6242 65.4088 67.6242 65.4088 67.5888C65.3714 67.1647 65.8575 66.9526 65.8575 66.5637C65.8575 66.493 65.8575 66.3517 65.9323 66.3163C66.2689 66.1749 66.1941 65.8921 66.2315 65.6447C66.2315 65.4679 66.2315 65.2558 66.4559 65.1498C66.6428 65.0438 66.5681 64.8316 66.6055 64.6549C66.6429 64.4428 66.5681 64.16 66.8672 64.054C66.9794 64.0186 66.942 63.8772 66.9794 63.7712C66.9794 63.5237 66.9794 63.2763 67.0168 63.0289C67.0168 62.9228 66.9794 62.7814 67.0916 62.7461C67.4282 62.6047 67.3534 62.3219 67.3534 62.1098C67.3534 57.7972 67.3908 53.52 67.3908 49.2075C67.3908 48.9247 67.316 48.6419 67.6526 48.4652C67.7648 48.3945 67.7274 48.2531 67.7274 48.147C67.69 47.8996 67.877 47.5814 67.5404 47.4047C67.8396 47.1926 67.7274 46.8745 67.7274 46.627C67.7274 46.3442 67.7274 46.0614 67.7274 45.7786C67.7274 45.4958 67.7274 45.1777 67.7274 44.8949C67.7274 44.6121 67.7274 44.3293 67.7274 44.0466C67.7274 43.8698 67.7274 43.6931 67.503 43.587C67.4282 43.5517 67.3908 43.5163 67.3908 43.4456C67.3908 42.774 66.7176 42.5619 66.3811 42.1377C66.1193 41.8196 65.7827 41.5721 65.4836 41.254C65.2218 40.9358 64.8852 40.6884 64.586 40.4056C64.2495 40.1228 63.9503 39.8047 63.6137 39.4865C63.3145 39.2038 63.0154 38.8856 62.7162 38.6382C62.3796 38.3554 62.1178 38.0726 61.8187 37.7898C61.4821 37.4717 61.1081 37.1535 60.7715 36.8354C60.4724 36.5526 60.1732 36.2698 59.874 35.9517C59.6123 35.6689 59.3131 35.3861 59.0139 35.1033C58.6773 34.7852 58.3408 34.467 58.0042 34.1489C57.705 33.8661 57.4058 33.5833 57.1441 33.3359C56.8075 33.0177 56.4709 32.6996 56.1343 32.3815C55.8352 32.0987 55.5734 31.8159 55.2368 31.5684C54.9002 31.2856 54.6385 31.0028 54.3019 30.7201C53.9279 30.4019 53.6287 30.0838 53.2922 29.7303C52.993 29.4475 52.6564 29.1647 52.3947 28.8819C52.1329 28.5638 51.7963 28.3163 51.4971 28.0336C51.2353 27.7861 50.8614 27.6094 50.8614 27.1498C50.8614 26.9377 50.3752 26.9024 50.2256 27.0791C49.7395 27.6447 49.1411 28.1396 48.6176 28.6345C48.0566 29.1647 47.4957 29.6949 46.9347 30.1898C46.486 30.5787 46.0746 31.0028 45.6632 31.427C45.364 31.7098 45.0649 32.028 44.7283 32.2754C44.3917 32.5228 44.1299 32.841 43.8308 33.1591C43.5316 33.4419 43.195 33.7601 42.8958 34.0428C42.5967 34.3256 42.2975 34.6084 41.9983 34.9266C41.6991 35.2094 41.4 35.5275 41.1008 35.8103C40.7642 36.1284 40.4277 36.4465 40.0911 36.7647C39.7545 37.0475 39.4927 37.3656 39.1562 37.6131C38.8196 37.8605 38.5578 38.1787 38.2586 38.4614C37.9595 38.7442 37.6229 39.0624 37.3237 39.3452C37.0245 39.628 36.688 39.9461 36.3888 40.2289C36.0896 40.5117 35.7904 40.8298 35.4913 41.0772C35.1547 41.36 34.8929 41.6782 34.5564 41.9256C34.2198 42.2084 33.958 42.5619 33.6214 42.8093C33.4344 42.9507 33.397 43.0568 33.397 43.2335C33.397 43.4103 33.397 43.5517 33.397 43.7284C33.397 49.1721 33.397 54.6158 33.397 60.0596C33.397 60.1656 33.397 60.2363 33.397 60.307C33.397 60.8726 33.7336 61.1907 34.332 61.1907C39.4179 61.1907 44.5039 61.1907 49.5525 61.1907C50.2256 61.1907 50.2256 61.1907 50.2256 61.827C50.2256 66.1396 50.2256 70.4521 50.2256 74.7647C50.2256 74.8707 50.2256 74.9768 50.2256 75.0828C50.2256 75.2595 50.1134 75.3302 49.9639 75.3302C49.8517 75.3302 49.7395 75.3302 49.6273 75.3302C41.8113 75.3302 34.0328 75.3302 26.2169 75.3302C25.9551 75.3302 25.6559 75.3302 25.3941 75.3302C25.1697 75.3302 24.908 75.3656 24.7584 75.0828C24.721 74.9768 24.5714 75.0121 24.4592 75.0121C24.2348 75.0121 23.973 74.9767 23.7487 75.0121C23.4495 75.0474 23.3373 74.8 23.1503 74.694C22.9633 74.5879 22.6642 74.7647 22.552 74.4819C22.5146 74.4112 22.4772 74.3758 22.4398 74.3758C21.7666 74.3405 21.4675 73.7749 21.0561 73.3861C20.9439 73.28 20.7943 73.28 20.6821 73.2447C20.5325 73.2093 20.3829 73.2093 20.3829 73.0326C20.4203 72.6437 20.0464 72.5023 19.8594 72.2549C19.7846 72.1488 19.635 71.9368 19.5228 71.9014C19.1862 71.76 19.261 71.5126 19.2236 71.2651C19.2236 71.053 19.2236 70.8763 18.9619 70.7349C18.7749 70.6642 18.8497 70.4521 18.8497 70.2754C18.8123 70.0279 18.8871 69.7805 18.5879 69.6391C18.4757 69.6037 18.5131 69.427 18.5131 69.3209C18.5131 68.7907 18.5131 68.2958 18.5131 67.7656C18.2139 63.2409 18.2139 58.681 18.2139 54.1563Z" fill="#FE805C"/>
<path fill-rule="evenodd" clip-rule="evenodd" d="M50.2 75.2093C50.2166 75.1752 50.2257 75.1334 50.2257 75.0828V74.7647V61.827C50.2257 61.6125 50.2257 61.4703 50.2 61.376V75.2093ZM50.2 27.1089C50.2086 27.099 50.2172 27.0891 50.2257 27.0791C50.3753 26.9024 50.8615 26.9377 50.8615 27.1498C50.8615 27.51 51.0912 27.6965 51.3166 27.8794C51.3788 27.9299 51.4406 27.98 51.4972 28.0336C51.597 28.1278 51.7009 28.2182 51.8048 28.3085C52.0125 28.4892 52.2203 28.6698 52.3948 28.8819C52.5693 29.0704 52.7771 29.259 52.9848 29.4475C53.0887 29.5418 53.1926 29.636 53.2923 29.7303C53.3084 29.7472 53.3244 29.7641 53.3404 29.7808C53.6577 30.1142 53.9459 30.4171 54.302 30.7201C54.4703 30.8615 54.6199 31.0028 54.7695 31.1442C54.919 31.2856 55.0686 31.427 55.2369 31.5684C55.4887 31.7535 55.6986 31.9584 55.9137 32.1683C55.9861 32.239 56.0591 32.3102 56.1345 32.3815L57.1442 33.3359L58.0043 34.1489L59.014 35.1033C59.313 35.3859 59.6125 35.6691 59.8741 35.9517C60.1733 36.2698 60.4725 36.5526 60.7716 36.8354C60.9399 36.9944 61.1176 37.1535 61.2952 37.3126C61.4728 37.4717 61.6505 37.6307 61.8188 37.7898C61.9185 37.8841 62.0141 37.9784 62.1097 38.0726C62.3008 38.2612 62.4919 38.4497 62.7163 38.6382C62.9158 38.8032 63.1152 38.9996 63.3147 39.196C63.4144 39.2941 63.5141 39.3923 63.6138 39.4865C63.7275 39.594 63.8368 39.7014 63.9448 39.8074C64.1567 40.0155 64.3632 40.2183 64.5861 40.4056C64.6859 40.4999 64.7898 40.5903 64.8937 40.6806C65.1014 40.8613 65.3092 41.0419 65.4837 41.254C65.6123 41.3908 65.7479 41.5145 65.8814 41.6364C66.0585 41.798 66.232 41.9564 66.3812 42.1377C66.4907 42.2757 66.6358 42.3913 66.7818 42.5075C67.0845 42.7485 67.3909 42.9925 67.3909 43.4456C67.3909 43.5163 67.4283 43.5517 67.5031 43.587C67.7275 43.6931 67.7275 43.8698 67.7275 44.0466V44.8949V45.7786V46.627C67.7275 46.6786 67.7324 46.7333 67.7374 46.7894C67.7564 47.0025 67.7773 47.2368 67.5405 47.4047C67.7765 47.5286 67.7551 47.722 67.7341 47.9118C67.7252 47.9928 67.7163 48.073 67.7275 48.147C67.7275 48.1677 67.7289 48.1897 67.7304 48.2123C67.7364 48.3055 67.743 48.4082 67.6527 48.4652C67.3684 48.6145 67.3776 48.8394 67.3873 49.0762C67.3891 49.1197 67.3909 49.1636 67.3909 49.2075C67.3909 51.3637 67.3815 53.5112 67.3722 55.6586C67.3629 57.8061 67.3535 59.9535 67.3535 62.1098C67.3535 62.1416 67.3552 62.1749 67.3569 62.2092C67.3667 62.4034 67.3779 62.6259 67.0917 62.7461C67.0017 62.7744 67.008 62.8711 67.014 62.963C67.0155 62.9856 67.0169 63.0079 67.0169 63.0289C66.9795 63.2762 66.9795 63.5236 66.9795 63.771C66.9673 63.8058 66.9631 63.8445 66.959 63.8819C66.9506 63.9586 66.9427 64.0302 66.8673 64.054C66.6376 64.1354 66.6284 64.321 66.6196 64.4989C66.6169 64.5526 66.6143 64.6057 66.6056 64.6549C66.5944 64.7079 66.5932 64.764 66.5921 64.8195C66.5895 64.9492 66.5869 65.0755 66.456 65.1498C66.2316 65.2558 66.2316 65.4679 66.2316 65.6447C66.2236 65.6976 66.2207 65.7522 66.2179 65.8067C66.2074 66.0067 66.197 66.2052 65.9324 66.3163C65.8576 66.3517 65.8576 66.493 65.8576 66.5637C65.8576 66.7486 65.7478 66.8935 65.6365 67.0402C65.5137 67.2022 65.3892 67.3663 65.4089 67.5888C65.4089 67.6087 65.3853 67.6174 65.358 67.6275C65.3367 67.6354 65.3131 67.6441 65.2967 67.6596C65.2499 67.7037 65.1985 67.7479 65.1471 67.7921C64.9928 67.9247 64.8386 68.0572 64.8105 68.1898C64.7731 68.5079 64.5861 68.72 64.3991 68.9321C64.3493 69.0028 64.2994 69.0421 64.2496 69.0814C64.2246 69.101 64.1997 69.1206 64.1748 69.1442C64.1238 69.1924 64.0644 69.2406 64.0051 69.2888C63.8469 69.4174 63.6886 69.5459 63.6886 69.6744C63.661 69.961 63.4709 70.1324 63.283 70.3018C63.216 70.3622 63.1492 70.4224 63.0903 70.4875C62.7911 70.8056 62.4545 71.0884 62.1179 71.3712C62.004 71.4691 61.9015 71.5833 61.7986 71.698C61.53 71.9973 61.2583 72.3 60.7717 72.3256C60.7343 72.3256 60.6969 72.361 60.6595 72.3963C60.3977 72.7144 60.1359 73.0326 59.6498 73.0326C59.6124 73.0326 59.575 73.0679 59.5376 73.1033C59.2758 73.4214 59.014 73.7395 58.5279 73.7395C58.4905 73.7395 58.4157 73.7749 58.4157 73.8103C58.3409 74.0577 58.1165 74.093 57.8921 74.093C57.8173 74.093 57.7051 74.093 57.6677 74.1991C57.6079 74.397 57.4523 74.414 57.2967 74.431C57.2578 74.4352 57.219 74.4395 57.1816 74.4465C57.1456 74.4579 57.1096 74.4619 57.0761 74.4657C57.0051 74.4737 56.9452 74.4805 56.9198 74.5526C56.8336 74.7697 56.6372 74.7784 56.4491 74.7868C56.3922 74.7893 56.3361 74.7918 56.284 74.8C56.2264 74.8109 56.1651 74.8084 56.1047 74.8058C55.9693 74.8002 55.8381 74.7947 55.7605 74.9414C55.6483 75.1535 55.4613 75.1535 55.2743 75.1535C55.0126 75.1888 54.7882 75.1888 54.5639 75.1888C54.5417 75.1888 54.518 75.1875 54.4941 75.1861C54.3969 75.1804 54.2946 75.1744 54.2646 75.2595C54.1634 75.5146 53.91 75.5109 53.6967 75.5077C53.6735 75.5073 53.6508 75.507 53.6289 75.507C53.3298 75.5423 52.9933 75.5423 52.6942 75.5423C52.676 75.5423 52.6565 75.5414 52.6368 75.5404C52.5352 75.5355 52.42 75.5299 52.3574 75.6484C52.2452 75.8605 52.0582 75.8605 51.8712 75.8605H51.0859C50.4501 75.8605 50.4501 75.8605 50.4501 76.4614V89.3637V89.6818C50.4501 89.9293 50.5623 90 50.7867 90C51.5346 89.9647 52.32 89.9646 53.1053 89.9646C53.2175 89.9646 53.3671 89.9646 53.4045 89.8586C53.5167 89.6465 53.7037 89.6465 53.8906 89.6465C54.4516 89.6112 54.9751 89.6112 55.5361 89.6112C55.5878 89.603 55.6414 89.6005 55.6947 89.598C55.8731 89.5896 56.0481 89.5814 56.1345 89.3637C56.1659 89.2447 56.3034 89.2509 56.413 89.2558C56.4336 89.2568 56.4533 89.2577 56.471 89.2577C56.8449 89.2223 57.1814 89.2223 57.5552 89.2223C57.5805 89.2223 57.6061 89.2233 57.631 89.2243C57.7536 89.2292 57.8673 89.2338 57.9295 89.1163C58.0043 88.9042 58.1913 88.9042 58.3783 88.9042C58.64 88.8688 58.8643 88.8688 59.0886 88.8688C59.1108 88.8688 59.1346 88.8702 59.1585 88.8716C59.2557 88.8773 59.358 88.8833 59.388 88.7981C59.5002 88.5595 59.6755 88.5595 59.8665 88.5595C59.9302 88.5595 59.9957 88.5595 60.0611 88.5507C60.1029 88.5507 60.1465 88.5542 60.1899 88.5577C60.3409 88.5699 60.4892 88.5819 60.5473 88.4446C60.6817 88.1906 60.8462 88.1933 61.0409 88.1965C61.063 88.1968 61.0854 88.1972 61.1082 88.1972C61.1643 88.1839 61.2362 88.1856 61.3081 88.1873C61.4279 88.19 61.5476 88.1928 61.5944 88.1265C61.7612 87.8743 61.9875 87.847 62.2202 87.819C62.2484 87.8156 62.2767 87.8122 62.3049 87.8084C62.3423 87.8084 62.4171 87.773 62.4171 87.7377C62.5051 87.4883 62.7079 87.4778 62.8995 87.4679C62.9524 87.4652 63.0044 87.4625 63.0529 87.4549C63.0751 87.4549 63.0977 87.4552 63.1206 87.4556C63.3277 87.4588 63.5501 87.4622 63.6512 87.2074C63.6886 87.1014 63.8382 87.1014 63.9504 87.1014C64.1386 87.0852 64.2876 86.9877 64.4369 86.89C64.614 86.7741 64.7914 86.658 65.0349 86.6772L65.0723 86.6419C65.1321 86.4439 65.2877 86.4269 65.4433 86.41C65.4822 86.4057 65.5211 86.4015 65.5585 86.3944C65.6332 86.3944 65.7828 86.3944 65.8202 86.2884C65.8806 86.0887 66.0141 86.0732 66.1616 86.056C66.1969 86.0519 66.2329 86.0478 66.269 86.0409C66.3438 86.0409 66.456 86.0409 66.5308 85.9702C66.7926 85.6521 67.0917 85.334 67.5779 85.334C67.6153 85.334 67.6527 85.2986 67.6901 85.2633C67.9519 84.9451 68.2136 84.627 68.6998 84.627C68.7372 84.627 68.7746 84.5916 68.812 84.5563C68.8694 84.502 68.924 84.4452 68.9782 84.3888C69.2069 84.1509 69.4288 83.92 69.8217 83.92C69.8591 83.92 69.8965 83.8846 69.9339 83.8493C70.1583 83.5901 70.4159 83.3623 70.6735 83.1345C70.8023 83.0206 70.9311 82.9067 71.0558 82.7888C71.1284 82.7202 71.1944 82.6454 71.2596 82.5713C71.4633 82.3402 71.6599 82.1172 72.0281 82.1172C72.1029 82.1172 72.1777 82.0819 72.1777 82.0112C72.2127 81.8953 72.3134 81.8337 72.4143 81.7719C72.529 81.7017 72.644 81.6313 72.6639 81.4809C72.9256 81.3219 73.122 81.1098 73.3183 80.8977C73.5146 80.6856 73.711 80.4735 73.9727 80.3144C74.0101 80.3144 74.0475 80.2084 74.0475 80.173C74.0157 79.8115 74.2554 79.6297 74.489 79.4526C74.5295 79.4219 74.5698 79.3913 74.6085 79.36C74.7581 79.2186 74.9077 79.0684 75.0573 78.9181C75.2068 78.7679 75.3564 78.6177 75.506 78.4763C75.5475 78.424 75.6094 78.3862 75.671 78.3487C75.776 78.2846 75.88 78.2211 75.88 78.0874C75.9174 77.8047 76.067 77.5926 76.2914 77.4158C76.3661 77.3451 76.4784 77.239 76.5157 77.1684C76.5648 77.0602 76.6639 76.9925 76.76 76.927C76.8835 76.8427 77.0019 76.7619 77.0019 76.6028C77.0019 76.2544 77.2721 76.0479 77.4897 75.8816C77.5149 75.8623 77.5395 75.8435 77.5628 75.8251C77.7187 75.6778 77.7446 75.5305 77.7706 75.3832C77.7758 75.3538 77.781 75.3243 77.7872 75.2949C77.804 75.1998 77.8809 75.1474 77.9606 75.093C78.0587 75.026 78.1612 74.9561 78.1612 74.8C78.1612 74.6152 78.2711 74.4703 78.3823 74.3235C78.5051 74.1616 78.6296 73.9974 78.61 73.7749C78.61 73.7537 78.6503 73.7325 78.6907 73.7113C78.7177 73.6971 78.7446 73.683 78.7596 73.6688C78.8196 73.5837 78.8903 73.5062 78.9603 73.4295C79.1519 73.2195 79.3379 73.0157 79.2831 72.6791C79.2457 72.5377 79.2831 72.3256 79.5075 72.2549C79.6571 72.2196 79.6571 72.1135 79.6571 72.0075C79.6571 71.8069 79.7741 71.6458 79.8897 71.4869C80.0184 71.3097 80.1453 71.1352 80.1058 70.9116L80.1432 70.8763C80.373 70.7948 80.3822 70.6092 80.391 70.4314C80.3937 70.3776 80.3963 70.3246 80.405 70.2754C80.4175 70.2165 80.4175 70.1536 80.4175 70.0934C80.4175 69.9729 80.4175 69.863 80.5172 69.8158C80.7472 69.7071 80.7562 69.5357 80.765 69.3658C80.7677 69.3148 80.7703 69.2639 80.779 69.2149C80.7914 69.156 80.7914 69.0931 80.7914 69.0329C80.7914 68.9125 80.7914 68.8025 80.8912 68.7554C81.122 68.6463 81.1302 68.474 81.1391 68.2874C81.1417 68.2321 81.1444 68.1756 81.1529 68.1191C81.1628 68.0264 81.1571 67.9312 81.1516 67.8375C81.136 67.5738 81.121 67.3211 81.4521 67.1647C81.4895 67.1293 81.4895 66.9879 81.4895 66.9172C81.5269 66.6698 81.5269 66.4577 81.5269 66.2103C81.5269 66.1893 81.5255 66.167 81.524 66.1444C81.518 66.0525 81.5117 65.9558 81.6017 65.9275C81.8868 65.8077 81.8767 65.5865 81.867 65.3713C81.8652 65.3324 81.8635 65.2937 81.8635 65.2558V64.4782C81.8635 64.3368 81.8635 64.1954 82.0131 64.1247C82.2001 64.054 82.2001 63.9126 82.2001 63.7358V62.9935V39.4158C82.2001 39.2391 82.1907 39.0624 82.1814 38.8856C82.172 38.7089 82.1627 38.5321 82.1627 38.3554C82.1627 38.3344 82.1641 38.3121 82.1656 38.2895C82.1716 38.1976 82.1779 38.101 82.0879 38.0726C81.8261 37.9666 81.7887 37.7545 81.7887 37.5424C81.7887 37.4717 81.7887 37.3656 81.6765 37.3303C81.4652 37.2732 81.4488 37.1471 81.4307 37.0076C81.4264 36.9743 81.4219 36.9402 81.4147 36.9061C81.4147 36.8 81.4147 36.694 81.3025 36.6233C81.269 36.5956 81.235 36.5683 81.201 36.541C80.9321 36.3252 80.6668 36.1122 80.6668 35.7042C80.6668 35.6689 80.6294 35.6335 80.592 35.5982C80.3183 35.4191 80.0921 35.184 79.8666 34.9497C79.6914 34.7677 79.5167 34.5862 79.3205 34.4317C79.0213 34.1842 78.7221 33.9014 78.4604 33.6187C78.236 33.383 78.0116 33.1788 77.7872 32.9745C77.675 32.8724 77.5628 32.7703 77.4507 32.6642C77.3011 32.5228 77.1515 32.3726 77.0019 32.2223C76.8523 32.0721 76.7027 31.9219 76.5531 31.7805L75.6182 30.8968L74.7207 30.0484C74.6071 29.941 74.4977 29.8337 74.3898 29.7276C74.1779 29.5195 73.9713 29.3167 73.7484 29.1294L72.8508 28.281L71.9159 27.3973L70.981 26.5135C70.6818 26.1954 70.3826 25.9126 70.0835 25.6298L69.0738 24.6754C68.812 24.3926 68.5128 24.1098 68.2136 23.827L67.2413 22.908L66.3438 22.0596C66.2454 21.9666 66.143 21.8736 66.0392 21.7794C65.8273 21.587 65.6097 21.3894 65.4089 21.1759C65.1097 20.8577 64.8105 20.5749 64.5113 20.2922L63.5016 19.3377C63.352 19.214 63.2025 19.0726 63.0529 18.9312C62.9033 18.7898 62.7537 18.6484 62.6041 18.5247C62.351 18.3387 62.1191 18.1126 61.8924 17.8917C61.8176 17.8188 61.7434 17.7465 61.6692 17.6763C61.3881 17.4637 61.1281 17.2112 60.8733 16.9638C60.7892 16.8821 60.7056 16.8009 60.6221 16.7219C60.5209 16.6263 60.4198 16.5348 60.3201 16.4445C60.1249 16.2678 59.9352 16.0961 59.7619 15.9089L58.7522 14.9545L57.8547 14.1061C57.7411 13.9987 57.6317 13.8913 57.5238 13.7853C57.3119 13.5772 57.1054 13.3744 56.8824 13.1871C56.7827 13.0928 56.6871 12.9946 56.5915 12.8964C56.4004 12.7 56.2092 12.5036 55.9849 12.3387C55.8587 12.2411 55.7501 12.1202 55.6408 11.9985C55.3936 11.7235 55.1426 11.4441 54.676 11.4196C54.6188 11.4196 54.5835 11.3784 54.5534 11.3431C54.544 11.3322 54.5352 11.3219 54.5264 11.3136C54.4893 11.2735 54.453 11.2321 54.4166 11.1905C54.1958 10.9385 53.9714 10.6823 53.5541 10.7126C53.4793 10.7126 53.4419 10.6773 53.4045 10.6066C53.3297 10.3591 53.1053 10.3591 52.9184 10.3591C52.8623 10.3516 52.8046 10.3489 52.7469 10.3462C52.5353 10.3362 52.3254 10.3264 52.2078 10.0763C52.1778 9.99124 52.0755 9.99721 51.9783 10.0029C51.9544 10.0043 51.9308 10.0057 51.9086 10.0057H50.2V27.1089Z" fill="#FE805C"/>
</svg>
