<svg width="132" height="14" viewBox="0 0 132 14" fill="none" xmlns="http://www.w3.org/2000/svg" id="logoName">
<path d="M4.194 13.0001V3.46008H0.414001V0.400081H11.466V3.46008H7.686V13.0001H4.194Z" fill="#222222"/>
<path d="M16.5988 13.0001V0.400081H22.5568C24.3928 0.400081 25.7608 0.850082 26.6608 1.75008C27.4048 2.49408 27.7768 3.49008 27.7768 4.73808C27.7768 6.58608 26.9128 7.87608 25.1848 8.60808L28.1908 13.0001H24.1588L21.6208 9.18408H20.0908V13.0001H16.5988ZM20.0908 6.44808H22.3948C22.9828 6.44808 23.4388 6.31608 23.7628 6.05208C24.0988 5.77608 24.2668 5.39808 24.2668 4.91808C24.2668 4.42608 24.0988 4.05408 23.7628 3.80208C23.4388 3.55008 22.9768 3.42408 22.3768 3.42408H20.0908V6.44808Z" fill="#222222"/>
<path d="M38.8063 13.2341C36.9583 13.2341 35.5243 12.7541 34.5043 11.7941C33.4843 10.8341 32.9743 9.39408 32.9743 7.47408V0.400081H36.5203V7.40208C36.5203 8.29008 36.7243 8.96208 37.1323 9.41808C37.5523 9.86208 38.1223 10.0841 38.8423 10.0841C39.5623 10.0841 40.1263 9.86808 40.5343 9.43608C40.9543 9.00408 41.1643 8.35608 41.1643 7.49208V0.400081H44.7103V7.38408C44.7103 9.35208 44.1883 10.8221 43.1443 11.7941C42.1123 12.7541 40.6663 13.2341 38.8063 13.2341Z" fill="#222222"/>
<path d="M50.3769 13.0001V0.400081H60.5109V3.37008H53.8329V5.27808H59.8809V8.03208H53.8329V10.0301H60.6009V13.0001H50.3769Z" fill="#222222"/>
<path d="M66.7388 13.0001V0.400081H67.6748V6.23208H75.7388V0.400081H76.6748V13.0001H75.7388V7.09608H67.6748V13.0001H66.7388Z" fill="#222222"/>
<path d="M94.3466 11.2901C93.1586 12.5741 91.6346 13.2161 89.7746 13.2161C87.9146 13.2161 86.3966 12.5801 85.2206 11.3081C84.0446 10.0241 83.4566 8.48808 83.4566 6.70008C83.4566 4.92408 84.0506 3.39408 85.2386 2.11008C86.4266 0.826082 87.9506 0.184082 89.8106 0.184082C91.6706 0.184082 93.1886 0.826082 94.3646 2.11008C95.5406 3.38208 96.1286 4.91208 96.1286 6.70008C96.1286 8.47608 95.5346 10.0061 94.3466 11.2901ZM85.9586 10.7141C86.9906 11.8181 88.2746 12.3701 89.8106 12.3701C91.3466 12.3701 92.6186 11.8241 93.6266 10.7321C94.6466 9.64008 95.1566 8.29608 95.1566 6.70008C95.1566 5.12808 94.6406 3.79008 93.6086 2.68608C92.5886 1.58208 91.3106 1.03008 89.7746 1.03008C88.2386 1.03008 86.9606 1.57608 85.9406 2.66808C84.9326 3.76008 84.4286 5.10408 84.4286 6.70008C84.4286 8.27208 84.9386 9.61008 85.9586 10.7141Z" fill="#222222"/>
<path d="M102.908 13.0001V0.400081H103.79L108.848 7.85208L113.906 0.400081H114.788V13.0001H113.852V2.05608L108.866 9.31008H108.794L103.808 2.05608V13.0001H102.908Z" fill="#222222"/>
<path d="M122.134 13.0001V0.400081H131.098V1.26408H123.07V6.21408H130.288V7.07808H123.07V12.1361H131.188V13.0001H122.134Z" fill="#222222"/>
</svg>
