<svg width="44" height="44" viewBox="0 0 44 44" fill="none" xmlns="http://www.w3.org/2000/svg">
<path fill-rule="evenodd" clip-rule="evenodd" d="M15.5146 26.0001L16.6946 24.8181C17.0726 24.4401 17.2806 23.9381 17.2806 23.4041V18.7271C17.2806 17.3701 17.8706 16.0731 18.9006 15.1711C19.9386 14.2611 21.2606 13.8611 22.6376 14.0421C24.9646 14.3511 26.7196 16.4551 26.7196 18.9371V23.4041C26.7196 23.9381 26.9276 24.4401 27.3046 24.8171L28.4856 26.0001H15.5146ZM23.9996 28.3411C23.9996 29.2401 23.0836 30.0001 21.9996 30.0001C20.9156 30.0001 19.9996 29.2401 19.9996 28.3411V28.0001H23.9996V28.3411ZM30.5206 25.2081L28.7196 23.4041V18.9371C28.7196 15.4561 26.2176 12.4991 22.8996 12.0601C20.9776 11.8041 19.0376 12.3911 17.5826 13.6671C16.1186 14.9491 15.2806 16.7931 15.2806 18.7271L15.2796 23.4041L13.4786 25.2081C13.0096 25.6781 12.8706 26.3771 13.1246 26.9901C13.3796 27.6041 13.9726 28.0001 14.6366 28.0001H17.9996V28.3411C17.9996 30.3591 19.7936 32.0001 21.9996 32.0001C24.2056 32.0001 25.9996 30.3591 25.9996 28.3411V28.0001H29.3626C30.0266 28.0001 30.6186 27.6041 30.8726 26.9911C31.1276 26.3771 30.9896 25.6771 30.5206 25.2081Z" fill="#9DA1A6"/>
<path d="M27 19.5C29.4853 19.5 31.5 17.4853 31.5 15C31.5 12.5147 29.4853 10.5 27 10.5C24.5147 10.5 22.5 12.5147 22.5 15C22.5 17.4853 24.5147 19.5 27 19.5Z" fill="#FE805C" stroke="#FAFAFB"/>
</svg>
