<svg width="44" height="44" viewBox="0 0 44 44" fill="none" xmlns="http://www.w3.org/2000/svg">
<path fill-rule="evenodd" clip-rule="evenodd" d="M22 17C23.104 17 24 16.104 24 15C24 13.896 23.104 13 22 13C20.896 13 20 13.896 20 15C20 16.104 20.896 17 22 17ZM22 20C20.896 20 20 20.896 20 22C20 23.104 20.896 24 22 24C23.104 24 24 23.104 24 22C24 20.896 23.104 20 22 20ZM20 29C20 27.896 20.896 27 22 27C23.104 27 24 27.896 24 29C24 30.104 23.104 31 22 31C20.896 31 20 30.104 20 29Z" fill="#9DA1A6"/>
</svg>
