<svg width="44" height="44" viewBox="0 0 44 44" fill="none" xmlns="http://www.w3.org/2000/svg">
<path fill-rule="evenodd" clip-rule="evenodd" d="M21.3745 30H22.6255V29.233C22.6255 28.298 23.2005 27.458 24.0895 27.091C25.0095 26.708 26.0145 26.896 26.6765 27.562L27.2155 28.103L28.1035 27.215L27.5585 26.671C26.8955 26.009 26.7085 25.005 27.0815 24.114C27.0815 24.114 27.0825 24.113 27.0825 24.112L27.0935 24.084C27.4575 23.201 28.2985 22.625 29.2335 22.625H29.9995V21.375H29.2335C28.2985 21.375 27.4575 20.8 27.0915 19.911C26.7065 18.991 26.8955 17.986 27.5615 17.323L28.1025 16.784L27.2155 15.897L26.6705 16.442C26.0085 17.104 25.0055 17.291 24.1145 16.919C23.2015 16.542 22.6255 15.702 22.6255 14.767V14H21.3745V14.767C21.3745 15.702 20.7995 16.542 19.9105 16.909C18.9915 17.294 17.9865 17.105 17.3235 16.438L16.7845 15.897L15.8965 16.785L16.4415 17.329C17.1035 17.991 17.2915 18.995 16.9185 19.886C16.5425 20.799 15.7015 21.375 14.7665 21.375H13.9995V22.625H14.7665C15.7015 22.625 16.5425 23.2 16.9085 24.089C17.2935 25.009 17.1045 26.014 16.4385 26.677L15.8975 27.216L16.7845 28.103L17.3295 27.558C17.9915 26.896 18.9945 26.709 19.8855 27.081C20.7985 27.458 21.3745 28.298 21.3745 29.233V30ZM22.9425 32H21.0505C20.1265 32 19.3745 31.248 19.3745 30.324V29.233C19.3745 29.086 19.2575 28.985 19.1475 28.94C19.0035 28.881 18.8495 28.869 18.7435 28.972L17.9735 29.743C17.3175 30.397 16.2515 30.399 15.5965 29.743L14.2565 28.403C13.9385 28.085 13.7645 27.663 13.7645 27.213C13.7655 26.764 13.9405 26.342 14.2595 26.024L15.0275 25.259C15.1325 25.154 15.1215 25 15.0745 24.889C15.0145 24.742 14.9145 24.625 14.7665 24.625H13.6825C12.7545 24.625 11.9995 23.871 11.9995 22.943V21.051C11.9995 20.126 12.7515 19.375 13.6765 19.375H14.7665C14.9135 19.375 15.0145 19.257 15.0595 19.147C15.1195 19.003 15.1315 18.848 15.0275 18.744L14.2565 17.974C13.6025 17.317 13.6025 16.251 14.2565 15.597L15.5965 14.257C15.9145 13.939 16.3355 13.765 16.7845 13.765H16.7865C17.2355 13.765 17.6585 13.94 17.9755 14.259L18.7405 15.028C18.8455 15.134 19.0005 15.122 19.1115 15.075C19.2575 15.014 19.3745 14.914 19.3745 14.767V13.683C19.3745 12.755 20.1295 12 21.0575 12H22.9495C23.8735 12 24.6255 12.752 24.6255 13.676V14.767C24.6255 14.914 24.7425 15.015 24.8525 15.06C24.9975 15.12 25.1515 15.133 25.2565 15.028L26.0265 14.257C26.6825 13.603 27.7485 13.601 28.4035 14.257L29.7445 15.598C30.0625 15.915 30.2365 16.337 30.2355 16.787C30.2355 17.235 30.0605 17.658 29.7415 17.975L28.9725 18.741C28.8675 18.846 28.8785 19 28.9255 19.111C28.9855 19.258 29.0855 19.375 29.2335 19.375H30.3175C31.2455 19.375 31.9995 20.129 31.9995 21.057V22.949C31.9995 23.874 31.2485 24.625 30.3235 24.625H29.2335C29.0865 24.625 28.9855 24.743 28.9405 24.853C28.9395 24.854 28.9275 24.884 28.9265 24.886C28.8805 24.997 28.8685 25.152 28.9725 25.256L29.7435 26.026C30.3975 26.683 30.3975 27.749 29.7435 28.403L28.4035 29.743C28.0855 30.061 27.6645 30.235 27.2155 30.235H27.2135C26.7645 30.235 26.3415 30.06 26.0245 29.741L25.2595 28.972C25.1545 28.867 24.9985 28.879 24.8885 28.925C24.7425 28.986 24.6255 29.086 24.6255 29.233V30.317C24.6255 31.245 23.8705 32 22.9425 32ZM22 20.5C21.173 20.5 20.5 21.173 20.5 22C20.5 22.827 21.173 23.5 22 23.5C22.827 23.5 23.5 22.827 23.5 22C23.5 21.173 22.827 20.5 22 20.5ZM22 25.5C20.07 25.5 18.5 23.93 18.5 22C18.5 20.07 20.07 18.5 22 18.5C23.93 18.5 25.5 20.07 25.5 22C25.5 23.93 23.93 25.5 22 25.5Z" fill="#9DA1A6"/>
</svg>
