<svg width="24" height="24" viewBox="0 0 24 24" fill="none" xmlns="http://www.w3.org/2000/svg">
<path d="M14.9826 8.20483H14.1281V8.99308H14.9826V8.20483Z" fill="#9DA1A6"/>
<path d="M10.8265 5.24927V14.8686C10.8265 15.3345 10.7427 15.795 10.5814 16.2278C10.5692 16.2603 10.5567 16.2925 10.5436 16.3247C10.537 16.3406 10.5304 16.3566 10.5239 16.3725C10.5104 16.4048 10.4964 16.4363 10.4823 16.4679C10.4748 16.4845 10.4673 16.5011 10.4591 16.5176C10.4476 16.5423 10.4354 16.567 10.4232 16.5914C10.4185 16.6011 10.4135 16.6105 10.4088 16.6199C10.4072 16.6227 10.406 16.6258 10.4044 16.6286C10.4038 16.6299 10.4032 16.6314 10.4022 16.6327C10.1712 17.0845 9.85349 17.485 9.47205 17.813H9.47487C9.26568 17.9934 9.03805 18.1504 8.79512 18.282C8.73165 18.3167 8.66662 18.3495 8.60096 18.3808C8.49933 18.429 8.39146 18.474 8.28015 18.515C8.24918 18.5265 8.21855 18.5371 8.1879 18.5475C8.10818 18.5744 8.02593 18.5991 7.9434 18.621C7.92496 18.6263 7.90618 18.631 7.88743 18.6356C7.82677 18.6506 7.77549 18.6622 7.72608 18.6722C7.69605 18.6785 7.65637 18.6863 7.61352 18.6932C7.55912 18.7032 7.50158 18.7119 7.43843 18.7197C7.37215 18.7285 7.30337 18.7354 7.23518 18.7404C7.17108 18.745 7.11012 18.7482 7.04977 18.75H7.04633C7.01255 18.7507 6.97849 18.751 6.9444 18.751H11.8962H16.312L16.317 18.746C18.2991 18.645 19.894 17.0504 19.9946 15.068L20 15.063V5.24927H10.8265ZM13.19 7.26692H15.9206V9.9312H13.19V7.26692ZM17.7669 15.916H13.1366V14.978H17.7669V15.916ZM17.7669 13.9543H13.1366V13.0163H17.7669V13.9543ZM17.7669 11.9926H13.1366V11.0546H17.7669V11.9926Z" fill="#9DA1A6"/>
<path d="M9.88853 8.48682H8.48119V15.0026C8.48119 15.843 7.79738 16.5268 6.95691 16.5268H6.82684C5.98637 16.5268 5.30256 15.843 5.30256 15.0026V12.7492H4V14.8684C4 16.4918 5.32072 17.8128 6.94441 17.8128C6.97097 17.8128 6.99725 17.8128 7.0235 17.8122C7.04506 17.8116 7.06697 17.8107 7.08947 17.8094C7.09353 17.8091 7.09791 17.8091 7.10197 17.8088C7.11666 17.8078 7.132 17.8069 7.14731 17.806C7.15387 17.8057 7.16075 17.8053 7.16731 17.8047C7.17575 17.8041 7.18388 17.8035 7.19231 17.8025C7.23484 17.7994 7.27703 17.795 7.31862 17.7894C7.31988 17.7891 7.32113 17.7891 7.32238 17.7888C7.34581 17.786 7.36772 17.7828 7.38866 17.7797C7.41053 17.7763 7.43119 17.7732 7.45088 17.7694L7.45931 17.7678C7.46181 17.7675 7.464 17.7669 7.4665 17.7666C7.49056 17.7625 7.51466 17.7578 7.53841 17.7532C7.56091 17.7488 7.58437 17.7435 7.61 17.7372C7.61094 17.7372 7.61188 17.7369 7.61281 17.7366C7.62906 17.7328 7.64597 17.7288 7.66409 17.7244L7.67066 17.7228C7.67753 17.7213 7.68409 17.7194 7.69066 17.7175L7.70003 17.715C7.76381 17.6982 7.82728 17.6791 7.88856 17.6584L7.89231 17.6569C7.91356 17.65 7.93484 17.6425 7.95609 17.6347C8.04081 17.6034 8.12306 17.569 8.19997 17.5328C8.50731 17.3873 8.78528 17.1916 9.02572 16.9509C9.06044 16.9162 9.09356 16.8818 9.12391 16.848C9.15769 16.8111 9.18737 16.7767 9.21522 16.7426C9.22959 16.7248 9.24525 16.7057 9.26056 16.6863C9.29059 16.6485 9.31872 16.611 9.34528 16.5735C9.37469 16.5316 9.40094 16.4925 9.42469 16.4553C9.45094 16.4143 9.47597 16.3734 9.49909 16.3333C9.56163 16.2242 9.61697 16.1113 9.6645 15.9953C9.67794 15.9641 9.69012 15.9325 9.70203 15.9009C9.70516 15.8931 9.70797 15.8853 9.71078 15.8775C9.72422 15.8406 9.73703 15.8031 9.74894 15.7655C9.75206 15.7562 9.75488 15.7468 9.75769 15.7374C9.76237 15.7227 9.76675 15.708 9.77112 15.693C9.77644 15.6755 9.78144 15.6573 9.78613 15.6395C9.78737 15.6342 9.78894 15.6286 9.7905 15.6233C9.79394 15.6098 9.79738 15.5961 9.80081 15.5826C9.80863 15.5513 9.81581 15.5198 9.82269 15.4882C9.82613 15.4728 9.82925 15.4572 9.83238 15.4413C9.84206 15.3947 9.85019 15.3474 9.85675 15.2999C9.86175 15.2683 9.86581 15.2365 9.86925 15.2046C9.87081 15.1886 9.87269 15.173 9.87425 15.157C9.87581 15.1402 9.87738 15.1233 9.87894 15.1064C9.87988 15.0914 9.88112 15.076 9.88206 15.061C9.8855 15.0132 9.88737 14.965 9.888 14.9166C9.888 14.9085 9.88831 14.9007 9.88831 14.8925C9.88862 14.8844 9.88863 14.8766 9.88863 14.8685V8.48682H9.88853Z" fill="#9DA1A6"/>
<path d="M6.2406 10.5784V15.0027C6.2406 15.326 6.50357 15.5889 6.82685 15.5889H6.95691C7.28023 15.5889 7.54316 15.3259 7.54316 15.0027V10.5784H6.2406Z" fill="#9DA1A6"/>
</svg>
