<svg width="24" height="24" viewBox="0 0 24 24" fill="none" xmlns="http://www.w3.org/2000/svg">
<path d="M17.1419 15.3448L16.6834 14.4174C15.8906 15.9473 14.3732 17.042 12.5863 17.2408L13.0251 16.1916C13.0402 16.1548 13.0314 16.1123 13.0023 16.0851C12.9728 16.0577 12.9297 16.0512 12.894 16.069C11.9298 16.5457 9.72532 17.6355 9.1285 17.9306C9.09064 17.9492 9.06689 17.9878 9.06689 18.0298C9.06689 18.0718 9.09064 18.1104 9.1285 18.1291C12.137 19.616 11.3438 19.2238 12.894 19.9901C12.9297 20.0079 12.9728 20.0015 13.0023 19.9742C13.0314 19.9468 13.0402 19.9043 13.0246 19.8675L12.5936 18.8368C14.7156 18.6539 16.5662 17.506 17.6962 15.8305C17.4574 15.7439 17.2528 15.5743 17.1419 15.3448Z" fill="#9DA1A6"/>
<path d="M6.85823 8.65532L7.31713 9.58274C8.10985 8.05328 9.62743 6.95856 11.4138 6.75991L10.9754 7.80851C10.9604 7.8453 10.9693 7.88777 10.9984 7.91523C11.0278 7.94244 11.0708 7.94892 11.1065 7.93104C14.2617 6.3708 11.6537 7.66084 14.8722 6.06948C14.9099 6.05082 14.9338 6.01225 14.9338 5.97056C14.9338 5.9703 14.9338 5.9703 14.9338 5.9703C14.9338 5.92829 14.9099 5.88971 14.8722 5.87106C11.8905 4.39711 12.6734 4.78437 11.1065 4.00982C11.0708 3.99223 11.0278 3.99868 10.9984 4.02589C10.9693 4.05335 10.9604 4.09582 10.9754 4.13261L11.4066 5.16359C9.28503 5.34679 7.43474 6.49457 6.30426 8.16988C6.54262 8.25637 6.74726 8.4258 6.85823 8.65532Z" fill="#9DA1A6"/>
<path d="M6.75038 12.4989L7.80895 12.9413C7.84568 12.9569 7.88866 12.9476 7.91561 12.9185C7.94301 12.8895 7.94933 12.8465 7.93174 12.8108C6.73697 10.3944 7.23901 11.4101 6.0697 9.04499V9.04444C6.05091 9.00687 6.01269 8.98303 5.97065 8.98303C5.92873 8.98303 5.89038 9.00687 5.87179 9.04444C4.30864 12.2072 4.76508 11.2837 4.01023 12.8108C3.99261 12.8465 3.99877 12.8895 4.02617 12.9185C4.05312 12.9476 4.09613 12.9569 4.13302 12.9413L5.15934 12.5121C5.32145 14.6948 6.50382 16.5957 8.23475 17.7358C8.31544 17.4799 8.49523 17.2604 8.73836 17.1421L9.62474 16.7035C8.04815 15.9041 6.92402 14.3394 6.75038 12.4989Z" fill="#9DA1A6"/>
<path d="M8.71448 12.0003C8.71448 13.8145 10.1859 15.2856 12.0002 15.2856C13.8146 15.2856 15.2856 13.8145 15.2856 12.0003C15.2856 10.1857 13.8146 8.7146 12.0002 8.7146C10.1859 8.71479 8.71448 10.1857 8.71448 12.0003Z" fill="#9DA1A6"/>
<path d="M19.9738 11.0816C19.9468 11.0526 19.9043 11.0435 19.8671 11.0588L18.8406 11.488C18.6784 9.30554 17.4963 7.4046 15.7654 6.26453C15.6849 6.52021 15.5052 6.73963 15.2623 6.85801L14.3752 7.29661C15.9518 8.096 17.0761 9.66041 17.2496 11.5009L16.1917 11.0588C16.1543 11.0432 16.112 11.0522 16.085 11.0816C16.0574 11.1106 16.0513 11.1536 16.0689 11.1893C17.6149 14.3171 16.1467 11.3451 17.9309 14.9551C17.9402 14.9738 17.9542 14.9893 17.9713 14.9999C17.9889 15.0108 18.0087 15.0168 18.0298 15.0168C18.0718 15.0168 18.1102 14.9927 18.1288 14.9551C19.6282 11.9206 19.2173 12.7521 19.9899 11.1893C20.0075 11.1536 20.0012 11.1106 19.9738 11.0816Z" fill="#9DA1A6"/>
</svg>
