<svg width="24" height="24" viewBox="0 0 24 24" fill="none" xmlns="http://www.w3.org/2000/svg">
<g clip-path="url(#clip0)">
<path d="M12 6.30467C11.724 6.30467 11.5 6.08067 11.5 5.80467V4.5C11.5 4.224 11.724 4 12 4C12.276 4 12.5 4.224 12.5 4.5V5.80467C12.5 6.08067 12.276 6.30467 12 6.30467Z" fill="#222222"/>
<path d="M16.3807 8.11933C16.2527 8.11933 16.1247 8.07066 16.0274 7.97266C15.832 7.77733 15.832 7.46066 16.0274 7.26533L16.95 6.34267C17.1453 6.14733 17.462 6.14733 17.6573 6.34267C17.8527 6.538 17.8527 6.85467 17.6573 7.05L16.7347 7.97266C16.6367 8.07 16.5087 8.11933 16.3807 8.11933Z" fill="#222222"/>
<path d="M19.5 12.5H18.1953C17.9193 12.5 17.6953 12.276 17.6953 12C17.6953 11.724 17.9193 11.5 18.1953 11.5H19.5C19.776 11.5 20 11.724 20 12C20 12.276 19.776 12.5 19.5 12.5Z" fill="#222222"/>
<path d="M17.3033 17.8033C17.1753 17.8033 17.0473 17.7546 16.95 17.6566L16.0274 16.734C15.832 16.5386 15.832 16.222 16.0274 16.0266C16.2227 15.8313 16.5394 15.8313 16.7347 16.0266L17.6573 16.9493C17.8527 17.1446 17.8527 17.4613 17.6573 17.6566C17.5593 17.7546 17.4313 17.8033 17.3033 17.8033Z" fill="#222222"/>
<path d="M6.69667 17.8033C6.56867 17.8033 6.44067 17.7546 6.34334 17.6566C6.14801 17.4613 6.14801 17.1446 6.34334 16.9493L7.266 16.0266C7.46133 15.8313 7.778 15.8313 7.97333 16.0266C8.16866 16.222 8.16866 16.5386 7.97333 16.734L7.05067 17.6566C6.95267 17.7546 6.82467 17.8033 6.69667 17.8033Z" fill="#222222"/>
<path d="M5.80467 12.5H4.5C4.224 12.5 4 12.276 4 12C4 11.724 4.224 11.5 4.5 11.5H5.80467C6.08067 11.5 6.30467 11.724 6.30467 12C6.30467 12.276 6.08067 12.5 5.80467 12.5Z" fill="#222222"/>
<path d="M7.61933 8.11933C7.49133 8.11933 7.36333 8.07066 7.266 7.97266L6.34334 7.05C6.14801 6.85467 6.14801 6.538 6.34334 6.34267C6.53867 6.14733 6.85534 6.14733 7.05067 6.34267L7.97333 7.26533C8.16866 7.46066 8.16866 7.77733 7.97333 7.97266C7.87467 8.07 7.74733 8.11933 7.61933 8.11933Z" fill="#222222"/>
<path d="M14 18V18.8333C14 19.4733 13.4733 20 12.8333 20H11.1667C10.6067 20 10 19.5733 10 18.64V18H14Z" fill="#222222"/>
<path d="M14.94 8.37344C13.8466 7.48677 12.4066 7.1401 11 7.4401C9.23332 7.80677 7.79998 9.24677 7.43332 11.0134C7.05998 12.8268 7.73998 14.6268 9.19332 15.7268C9.58665 16.0201 9.85998 16.4734 9.95332 17.0001V17.0068C9.96665 17.0001 9.98665 17.0001 9.99998 17.0001H14C14.0133 17.0001 14.02 17.0001 14.0333 17.0068V17.0001C14.1266 16.4934 14.4266 16.0268 14.8866 15.6668C16.0133 14.7734 16.6666 13.4401 16.6666 12.0001C16.6666 10.5868 16.04 9.26677 14.94 8.37344ZM14.5 12.3334C14.2266 12.3334 14 12.1068 14 11.8334C14 10.8201 13.18 10.0001 12.1666 10.0001C11.8933 10.0001 11.6666 9.77344 11.6666 9.5001C11.6666 9.22677 11.8933 9.0001 12.1666 9.0001C13.7266 9.0001 15 10.2734 15 11.8334C15 12.1068 14.7733 12.3334 14.5 12.3334Z" fill="#222222"/>
<path d="M9.95337 17H10C9.9867 17 9.9667 17 9.95337 17.0067V17Z" fill="#222222"/>
<path d="M14.0333 17V17.0067C14.02 17 14.0133 17 14 17H14.0333Z" fill="#222222"/>
</g>
<defs>
<clipPath id="clip0">
<rect width="16" height="16" fill="white" transform="translate(4 4)"/>
</clipPath>
</defs>
</svg>
