<svg width="24" height="24" viewBox="0 0 24 24" fill="none" xmlns="http://www.w3.org/2000/svg">
<g clip-path="url(#clip0)">
<path d="M11.9998 8.00005C13.1043 8.00005 13.9997 7.10464 13.9997 6.00009C13.9997 4.89554 13.1043 4.00012 11.9998 4.00012C10.8952 4.00012 9.99982 4.89554 9.99982 6.00009C9.99982 7.10464 10.8952 8.00005 11.9998 8.00005Z" fill="#9DA1A6"/>
<path d="M14.9958 13.436L14.5418 9.90011C14.4908 9.38711 14.0628 9.00012 13.5478 9.00012H12.9998C12.8668 9.00012 12.7398 9.05312 12.6458 9.14612L11.9998 9.79211L11.3539 9.14612C11.2599 9.05312 11.1329 9.00012 10.9999 9.00012H10.4529C9.93688 9.00012 9.50888 9.38712 9.45888 9.88711L9.00389 13.437C8.98589 13.579 9.02989 13.723 9.12489 13.83C9.21989 13.938 9.35589 14 9.49988 14H10.0399L10.4579 19.0999C10.5079 19.6119 10.9369 19.9999 11.4528 19.9999H12.5478C13.0638 19.9999 13.4918 19.6119 13.5438 19.0909L13.9608 14H14.4998C14.6438 14 14.7798 13.938 14.8748 13.83C14.9708 13.723 15.0148 13.579 14.9958 13.436Z" fill="#9DA1A6"/>
<path d="M16.9997 8.00005C18.1043 8.00005 18.9997 7.10464 18.9997 6.00009C18.9997 4.89554 18.1043 4.00012 16.9997 4.00012C15.8952 4.00012 14.9998 4.89554 14.9998 6.00009C14.9998 7.10464 15.8952 8.00005 16.9997 8.00005Z" fill="#9DA1A6"/>
<path d="M6.9999 4.00012C5.89692 4.00012 4.99994 4.89711 4.99994 6.00009C4.99994 7.10307 5.89692 8.00005 6.9999 8.00005C8.10188 8.00005 8.99986 7.10307 8.99986 6.00009C8.99986 4.89711 8.10188 4.00012 6.9999 4.00012Z" fill="#9DA1A6"/>
<path d="M19.9957 13.436L19.5417 9.90111C19.4907 9.38712 19.0637 9.00012 18.5477 9.00012H17.9997C17.8667 9.00012 17.7397 9.05312 17.6457 9.14612L16.9997 9.79211L16.3537 9.14612C16.2597 9.05312 16.1328 9.00012 16.0008 9.00012H15.4528C15.3908 9.00012 15.3348 9.02212 15.2758 9.03312C15.4048 9.26112 15.5058 9.50811 15.5358 9.78511L15.9888 13.309C16.0448 13.738 15.9108 14.17 15.6228 14.495C15.4868 14.651 15.3128 14.761 15.1268 14.847L15.4588 18.1C15.5098 18.613 15.9378 18.9999 16.4537 18.9999H17.5487C18.0647 18.9999 18.4927 18.612 18.5447 18.091L18.9607 14H19.4997C19.6437 14 19.7797 13.938 19.8747 13.83C19.9707 13.723 20.0147 13.579 19.9957 13.436Z" fill="#9DA1A6"/>
<path d="M8.37385 14.49C8.08985 14.169 7.95785 13.738 8.01185 13.311L8.46685 9.76011C8.49285 9.49411 8.59084 9.25412 8.71584 9.03212C8.65984 9.02212 8.60684 9.00012 8.54784 9.00012H7.99985C7.86686 9.00012 7.73986 9.05312 7.64586 9.14612L6.99987 9.79211L6.35388 9.14612C6.25988 9.05312 6.13289 9.00012 6.00089 9.00012H5.45287C4.93688 9.00012 4.50888 9.38712 4.45888 9.88711L4.00389 13.437C3.98589 13.579 4.02989 13.723 4.12489 13.83C4.21989 13.938 4.35689 14 4.49988 14H5.03987L5.45787 18.1C5.50787 18.612 5.93686 18.9999 6.45285 18.9999H7.54783C8.06382 18.9999 8.49181 18.612 8.54381 18.091L8.87581 14.846C8.68884 14.759 8.51384 14.648 8.37385 14.49Z" fill="#9DA1A6"/>
</g>
<defs>
<clipPath id="clip0">
<rect width="16" height="16" fill="white" transform="translate(4 4)"/>
</clipPath>
</defs>
</svg>


