<svg width="24" height="24" viewBox="0 0 24 24" fill="none" xmlns="http://www.w3.org/2000/svg">
<g clip-path="url(#clip0)">
<path d="M19.8444 4.06538C19.729 3.98476 19.578 3.97838 19.4562 4.048L4.18357 12.7753C4.05893 12.8463 3.98789 12.9841 4.0021 13.1268C4.01632 13.2696 4.1129 13.3907 4.24892 13.4358L8.80972 14.9559L10.5678 19.7614C10.6207 19.906 10.7581 20.0001 10.909 20.0001C10.9229 20.0001 10.9371 19.9993 10.9509 19.9976C11.0492 19.9863 11.1318 19.9334 11.1903 19.8601L13.781 16.6132L17.3398 17.7994C17.3774 17.8122 17.4161 17.8182 17.4548 17.8182C17.5202 17.8182 17.5852 17.8005 17.6423 17.766C17.7336 17.7114 17.7961 17.6194 17.8135 17.5143L19.9953 4.42341C20.0184 4.28483 19.9598 4.14563 19.8444 4.06538ZM11.1285 15.2266C11.0912 15.2774 11.0674 15.3367 11.06 15.3992L10.7315 18.0917L9.51349 14.7625L16.6253 7.81432L11.1285 15.2266Z" fill="#9DA1A6"/>
</g>
<defs>
<clipPath id="clip0">
<rect width="16" height="16" fill="white" transform="translate(4 4)"/>
</clipPath>
</defs>
</svg>
