<svg width="24" height="24" viewBox="0 0 24 24" fill="none" xmlns="http://www.w3.org/2000/svg">
<g clip-path="url(#clip0)">
<path d="M4.0001 10.9556C3.99314 11.5605 4.36599 12.1048 4.93247 12.3169V9.72489C4.93247 9.68759 4.95111 9.63166 4.95111 9.59436C4.3808 9.80474 4.00149 10.3477 4.0001 10.9556Z" fill="#9DA1A6"/>
<path d="M9.09096 14.1632H6.64807L7.56182 17.4825C7.69713 17.9891 8.15636 18.3412 8.6807 18.3404C9.05377 18.3448 9.40674 18.1717 9.63175 17.8742C9.85894 17.591 9.929 17.2129 9.81821 16.8672L9.09096 14.1632Z" fill="#9DA1A6"/>
<path d="M4.95111 9.57576H4.96974V9.55713C4.96974 9.57576 4.96974 9.57576 4.95111 9.57576Z" fill="#9DA1A6"/>
<path d="M18.3217 9.31458H18.1725V12.6712H18.3217C19.2486 12.6712 20 11.9198 20 10.9929C20 10.066 19.2485 9.31458 18.3217 9.31458Z" fill="#9DA1A6"/>
<path d="M5.49194 9.7249V12.3729C5.51211 13.0587 6.07399 13.604 6.75998 13.6037H10.1539V8.56873H6.75998C6.08866 8.56873 5.49194 9.05358 5.49194 9.7249Z" fill="#9DA1A6"/>
<path d="M10.7133 13.6783L17.613 16.4382V5.65967L10.7133 8.41958V13.6783Z" fill="#9DA1A6"/>
</g>
<defs>
<clipPath id="clip0">
<rect width="16" height="16" fill="white" transform="translate(4 4)"/>
</clipPath>
</defs>
</svg>
