<svg width="24" height="24" viewBox="0 0 24 24" fill="none" xmlns="http://www.w3.org/2000/svg">
<g clip-path="url(#clip0)">
<path d="M12.1667 5.33333H11.4334C11.2134 4.56667 10.5067 4 9.66669 4C8.82669 4 8.12002 4.56667 7.90002 5.33333H7.16669C6.89335 5.33333 6.66669 5.56 6.66669 5.83333V6.83333C6.66669 7.47333 7.19335 8 7.83336 8H11.5C12.14 8 12.6667 7.47333 12.6667 6.83333V5.83333C12.6667 5.56 12.44 5.33333 12.1667 5.33333Z" fill="#9DA1A6"/>
<path d="M13.5 6H13.3333V6.83333C13.3333 7.84667 12.5133 8.66667 11.5 8.66667H7.83333C6.82 8.66667 6 7.84667 6 6.83333V6H5.83333C4.82 6 4 6.82 4 7.83333V16.1667C4 17.18 4.82 18 5.83333 18H10.7533L10.9 17.18C10.9667 16.8067 11.14 16.4733 11.4067 16.2L11.94 15.6667H6.5C6.22667 15.6667 6 15.44 6 15.1667C6 14.8933 6.22667 14.6667 6.5 14.6667H12.8333C12.8667 14.6667 12.8933 14.6667 12.9267 14.68H12.9333L15.3333 12.28V7.83333C15.3333 6.82 14.5133 6 13.5 6ZM12.8333 13.5H6.5C6.22667 13.5 6 13.2733 6 13C6 12.7267 6.22667 12.5 6.5 12.5H12.8333C13.1067 12.5 13.3333 12.7267 13.3333 13C13.3333 13.2733 13.1067 13.5 12.8333 13.5ZM12.8333 11.3333H6.5C6.22667 11.3333 6 11.1067 6 10.8333C6 10.56 6.22667 10.3333 6.5 10.3333H12.8333C13.1067 10.3333 13.3333 10.56 13.3333 10.8333C13.3333 11.1067 13.1067 11.3333 12.8333 11.3333Z" fill="#9DA1A6"/>
<path d="M12.3513 20.0001C12.22 20.0001 12.092 19.9481 11.998 19.8534C11.8826 19.7381 11.8306 19.5741 11.8593 19.4128L12.2126 17.4094C12.23 17.3088 12.2793 17.2154 12.3513 17.1428L17.3013 12.1934C17.9093 11.5841 18.5066 11.7488 18.8333 12.0754L19.658 12.9001C20.1133 13.3548 20.1133 14.0948 19.658 14.5501L14.708 19.5001C14.636 19.5728 14.5426 19.6214 14.4413 19.6388L12.438 19.9921C12.4093 19.9974 12.38 20.0001 12.3513 20.0001ZM14.3546 19.1468H14.3613H14.3546Z" fill="#9DA1A6"/>
</g>
<defs>
<clipPath id="clip0">
<rect width="16" height="16" fill="white" transform="translate(4 4)"/>
</clipPath>
</defs>
</svg>
