<svg width="9" height="11" viewBox="0 0 9 11" fill="none" xmlns="http://www.w3.org/2000/svg">
<path d="M1.19 0.906H4.256C4.732 0.906 5.18 0.952666 5.6 1.046C6.02 1.13933 6.384 1.30267 6.692 1.536C7.00933 1.76 7.25667 2.06333 7.434 2.446C7.61133 2.81933 7.7 3.29067 7.7 3.86C7.7 4.24267 7.62533 4.62067 7.476 4.994C7.336 5.358 7.12133 5.68467 6.832 5.974C6.552 6.26333 6.19267 6.50133 5.754 6.688C5.32467 6.86533 4.82533 6.954 4.256 6.954H2.562V11H1.19V0.906ZM4.032 5.904C4.80667 5.904 5.376 5.75 5.74 5.442C6.11333 5.12467 6.3 4.616 6.3 3.916C6.3 3.51467 6.244 3.18333 6.132 2.922C6.02933 2.66067 5.88 2.45533 5.684 2.306C5.488 2.15667 5.25 2.054 4.97 1.998C4.69933 1.942 4.39133 1.914 4.046 1.914H2.562V5.904H4.032Z" fill="#202020"/>
<path d="M0 7.5H8.204V8.2H0V7.5Z" fill="#202020"/>
</svg>
